<svg width="82" height="92" viewBox="0 0 82 92" fill="none" xmlns="http://www.w3.org/2000/svg">
<path fill-rule="evenodd" clip-rule="evenodd" d="M54.7928 21.5364C54.7928 14.3268 60.6316 8.45996 67.8067 8.45996C74.9819 8.45996 80.8207 14.3268 80.8207 21.5364C80.8207 28.7459 74.9819 34.6128 67.8067 34.6128C60.6316 34.6128 54.7928 28.7459 54.7928 21.5364ZM73.0072 18.6372C71.9859 16.807 70.0452 15.5583 67.8067 15.5583H67.7982C64.5213 15.5583 61.8488 18.2438 61.8488 21.5364C61.8488 22.8278 62.2658 24.0251 62.9637 25C67.7727 27.044 73.9179 22.9561 73.0072 18.6372ZM46.1968 32.663L75.2548 41.2068L75.2463 41.1982C78.6338 42.1988 81 45.3632 81 48.9123V56.1818C81 59.6882 78.77 62.767 75.442 63.836L16.2281 82.8563C15.4365 83.1043 14.6194 83.2326 13.8023 83.2326C12.449 83.2326 11.1042 82.8905 9.90411 82.2234L4.78024 79.3584C2.25235 77.9387 0.677734 75.2533 0.677734 72.337V72.1574C0.677734 69.8825 1.64804 67.7017 3.3333 66.1794L38.6131 34.3906C40.6899 32.5262 43.5242 31.8762 46.1968 32.663ZM7.74221 72.3455C7.74221 72.6791 7.92095 72.9955 8.21885 73.158H8.22736L13.3512 76.023C13.5725 76.1513 13.8364 76.177 14.0832 76.1L14.8918 75.8434L73.9355 48.8268V48.8012C73.8164 48.4591 73.544 48.1854 73.2035 48.0742L71.5268 47.5098L44.2136 39.4792C44.1285 39.4535 44.0349 39.445 43.9498 39.445C43.72 39.445 43.4987 39.5305 43.3285 39.6844L8.04862 71.4732C7.85286 71.6443 7.74221 71.9008 7.74221 72.166V72.3455Z" fill="url(#paint0_radial_418_9907)"/>
<defs>
<radialGradient id="paint0_radial_418_9907" cx="0" cy="0" r="1" gradientUnits="userSpaceOnUse" gradientTransform="translate(40.8772 1.55228) rotate(90) scale(79.0142 84.8786)">
<stop offset="0.18" stop-color="#3C5B68"/>
<stop offset="1" stop-color="#04080E"/>
</radialGradient>
</defs>
</svg>
