<svg width="46" height="45" viewBox="0 0 46 45" fill="none" xmlns="http://www.w3.org/2000/svg">
<mask id="mask0_564_1158" style="mask-type:alpha" maskUnits="userSpaceOnUse" x="0" y="0" width="46" height="45">
<rect x="0.75" width="45" height="45" fill="#D9D9D9"/>
</mask>
<g mask="url(#mask0_564_1158)">
<path d="M23.25 41.25C20.6562 41.25 18.2187 40.7578 15.9375 39.7734C13.6562 38.7891 11.6719 37.4531 9.98437 35.7656C8.29687 34.0781 6.96094 32.0937 5.97656 29.8125C4.99219 27.5312 4.5 25.0937 4.5 22.5C4.5 19.9062 4.99219 17.4687 5.97656 15.1875C6.96094 12.9062 8.29687 10.9219 9.98437 9.23437C11.6719 7.54687 13.6562 6.21094 15.9375 5.22656C18.2187 4.24219 20.6562 3.75 23.25 3.75C25.8437 3.75 28.2812 4.24219 30.5625 5.22656C32.8437 6.21094 34.8281 7.54687 36.5156 9.23437C38.2031 10.9219 39.5391 12.9062 40.5234 15.1875C41.5078 17.4687 42 19.9062 42 22.5C42 25.0937 41.5078 27.5312 40.5234 29.8125C39.5391 32.0937 38.2031 34.0781 36.5156 35.7656C34.8281 37.4531 32.8437 38.7891 30.5625 39.7734C28.2812 40.7578 25.8437 41.25 23.25 41.25ZM23.25 38.4375C25.375 38.4375 27.4159 38.0343 29.3728 37.2278C31.3297 36.4214 33.0543 35.2621 34.5469 33.75L23.25 22.5V6.5625C18.8125 6.5625 15.0469 8.10644 11.9531 11.1943C8.85937 14.2822 7.3125 18.0508 7.3125 22.5C7.3125 26.9492 8.85644 30.7178 11.9443 33.8057C15.0322 36.8936 18.8008 38.4375 23.25 38.4375Z" fill="#1C1B1F"/>
</g>
</svg>
