<svg width="107" height="102" viewBox="0 0 107 102" fill="none" xmlns="http://www.w3.org/2000/svg">
<path opacity="0.8" d="M46.7758 99.3099C46.7758 99.3099 46.8228 99.2716 46.8581 99.2429C47.0344 99.0994 47.2032 98.9225 47.3699 98.7671C51.8889 94.4974 82.2082 66.0931 101.324 54.8786L101.985 54.4189C110.592 47.4148 104.517 30.7282 94.0535 17.8702C83.5896 5.01229 68.4851 -4.32568 59.8785 2.67848L59.4905 2.99424L59.1722 3.37167C45.1426 20.0191 11.1503 43.2616 5.56695 47.016C5.15206 47.2747 4.74683 47.5453 4.35883 47.861C-4.24778 54.8652 1.82685 71.5518 12.2908 84.4098C22.7548 97.2677 37.8475 106.615 46.4659 99.6015C46.5717 99.5154 46.6775 99.4293 46.7854 99.3217L46.7758 99.3099ZM85.8114 24.5778C88.4008 27.7596 90.3485 30.7533 91.8072 33.4343L44.6237 71.8328C42.8731 68.817 40.8044 65.8429 38.5339 63.0528C33.6546 57.0572 27.7704 51.8201 21.9967 48.6641C34.919 39.47 55.6568 23.8367 66.7628 10.9698C68.7984 10.5171 76.9707 13.7144 85.8017 24.5659L85.8114 24.5778ZM20.5329 77.7022C11.4603 66.5539 10.1469 57.7352 11.0614 56.2411C11.0849 56.222 11.1201 56.1933 11.1436 56.1741C12.9272 55.5318 21.262 58.6167 30.3056 69.7293C39.3493 80.842 40.6903 89.5987 39.7066 91.2479C37.9017 91.8879 29.5807 88.772 20.5468 77.6712L20.5329 77.7022Z" fill="#34B8DF"/>
</svg>
