<svg width="45" height="45" viewBox="0 0 45 45" fill="none" xmlns="http://www.w3.org/2000/svg">
<mask id="mask0_564_1146" style="mask-type:alpha" maskUnits="userSpaceOnUse" x="0" y="0" width="45" height="45">
<rect width="45" height="45" fill="#D9D9D9"/>
</mask>
<g mask="url(#mask0_564_1146)">
<path d="M29.0625 37.5469L21.5625 30.0469L23.5781 28.0312L29.0625 33.5156L40.2656 22.3125L42.2812 24.3281L29.0625 37.5469ZM39.375 18.1406H36.5625V8.4375H33.75V12.6562H11.25V8.4375H8.4375V36.5625H20.2031V39.375H8.4375C7.625 39.375 6.95312 39.1094 6.42188 38.5781C5.89062 38.0469 5.625 37.375 5.625 36.5625V8.4375C5.625 7.625 5.89062 6.95312 6.42188 6.42187C6.95312 5.89062 7.625 5.625 8.4375 5.625H17.9062C18.125 4.53125 18.6641 3.63281 19.5234 2.92969C20.3828 2.22656 21.375 1.875 22.5 1.875C23.625 1.875 24.6172 2.22656 25.4766 2.92969C26.3359 3.63281 26.875 4.53125 27.0938 5.625H36.5625C37.375 5.625 38.0469 5.89062 38.5781 6.42187C39.1094 6.95312 39.375 7.625 39.375 8.4375V18.1406ZM22.5 8.4375C23.0312 8.4375 23.4766 8.25781 23.8359 7.89844C24.1953 7.53906 24.375 7.09375 24.375 6.5625C24.375 6.03125 24.1953 5.58594 23.8359 5.22656C23.4766 4.86719 23.0312 4.6875 22.5 4.6875C21.9688 4.6875 21.5234 4.86719 21.1641 5.22656C20.8047 5.58594 20.625 6.03125 20.625 6.5625C20.625 7.09375 20.8047 7.53906 21.1641 7.89844C21.5234 8.25781 21.9688 8.4375 22.5 8.4375Z" fill="#1C1B1F"/>
</g>
</svg>
