<svg width="46" height="45" viewBox="0 0 46 45" fill="none" xmlns="http://www.w3.org/2000/svg">
<mask id="mask0_564_1150" style="mask-type:alpha" maskUnits="userSpaceOnUse" x="0" y="0" width="46" height="45">
<rect x="0.25" width="45" height="45" fill="#D9D9D9"/>
</mask>
<g mask="url(#mask0_564_1150)">
<path d="M7.9375 37.5V13.2656L4.09375 5.01562L6.71875 3.75L10.9375 13.2656H34.6094L38.8281 3.75L41.4531 5.01562L37.6094 13.2656V37.5H7.9375ZM18.8125 23.5781H26.7813C27.1797 23.5781 27.5137 23.4426 27.7832 23.1715C28.0527 22.9004 28.1875 22.5644 28.1875 22.1637C28.1875 21.7629 28.0527 21.4297 27.7832 21.1641C27.5137 20.8984 27.1797 20.7656 26.7813 20.7656H18.8125C18.4141 20.7656 18.0801 20.9012 17.8105 21.1723C17.541 21.4434 17.4063 21.7793 17.4063 22.1801C17.4063 22.5809 17.541 22.9141 17.8105 23.1797C18.0801 23.4453 18.4141 23.5781 18.8125 23.5781ZM10.75 34.6875H34.7969V16.0781H10.75V34.6875Z" fill="#1C1B1F"/>
</g>
</svg>
