<svg width="64" height="42" viewBox="0 0 64 42" fill="none" xmlns="http://www.w3.org/2000/svg">
<path d="M53.2674 0.475586C43.757 0.475586 35.4113 8.12817 31.7386 12.0818C28.0588 8.12817 19.7131 0.475586 10.2099 0.475586C3.87199 0.475586 0.242188 4.28773 0.242188 10.9289C0.242188 23.5323 10.4742 30.9162 30.6239 40.9168L31.7458 41.4756L32.8676 40.9168C53.0244 30.9162 62.6706 21.4247 63.2422 11.0633V10.9289C63.2422 4.28773 59.6124 0.475586 53.2745 0.475586H53.2674ZM5.23674 10.9289C5.23674 6.36001 7.22313 5.42642 10.2027 5.42642C20.2776 5.42642 29.6593 17.2731 29.7522 17.3862L31.7315 19.9182L33.7107 17.3862C33.7822 17.2943 39.5556 10.0024 46.9009 6.85509C48.9588 6.91168 50.0663 8.36157 50.0663 10.7026C50.0663 21.5803 31.8029 34.8485 30.3667 35.2163C30.3667 35.2305 30.381 35.2375 30.3881 35.2446C11.1959 25.4985 5.24389 19.6424 5.24389 10.9219L5.23674 10.9289Z" fill="white"/>
</svg>
