<svg width="85" height="65" viewBox="0 0 85 65" fill="none" xmlns="http://www.w3.org/2000/svg">
<path d="M42.51 0C18.2286 0 0.0874023 22.9297 0.0874023 43.4287C0.0874023 54.3175 5.22064 64.3914 42.51 64.3914C79.7994 64.3914 84.9326 54.3175 84.9326 43.4287C84.9326 22.9297 66.7915 0 42.51 0ZM9.86433 43.4287C9.86433 27.8894 24.1171 9.83504 42.496 9.83504C50.3847 9.83504 57.5181 13.1649 63.0849 18.1948C65.4627 21.5106 66.0641 25.0372 66.1481 28.6762C66.1481 49.2736 40.6637 53.7696 24.7325 53.4745C18.0048 52.491 14.3681 50.9877 12.4379 49.6389C9.96224 47.9248 9.85034 46.3231 9.85034 43.4147L9.86433 43.4287Z" fill="#58C1E0"/>
</svg>
