<svg width="366" height="512" viewBox="0 0 366 512" fill="none" xmlns="http://www.w3.org/2000/svg">
<path d="M355.924 472.172C354.013 487.57 342.069 499.793 326.72 502.055C300.053 505.99 252.222 511.069 183.049 511.069C113.875 511.069 66.1122 505.997 39.4344 502.063C24.0886 499.801 12.1298 487.578 10.2305 472.183C6.22032 439.649 0.544922 372.896 0.544922 255.536C0.544922 138.177 6.2543 70.967 10.2682 38.5534C12.1676 23.2038 24.0583 11.0147 39.3476 8.69245C64.9491 4.81068 111.16 0 183.045 0C254.929 0 301.212 4.81446 326.799 8.70001C342.069 11.0185 353.96 23.1811 355.871 38.5119C359.881 70.6762 365.545 137.067 365.545 255.536C365.545 374.006 359.926 439.864 355.92 472.172H355.924Z" fill="#D9D9D9"/>
</svg>
