<svg width="82" height="92" viewBox="0 0 82 92" fill="none" xmlns="http://www.w3.org/2000/svg">
<path fill-rule="evenodd" clip-rule="evenodd" d="M50.8591 28.3899C50.8591 23.2129 55.0519 19 60.2042 19C65.3565 19 69.5492 23.2129 69.5492 28.3899C69.5492 33.5669 65.3565 37.7798 60.2042 37.7798C55.0519 37.7798 50.8591 33.5669 50.8591 28.3899ZM63.9385 26.308C63.2051 24.9938 61.8116 24.0972 60.2042 24.0972H60.1981C57.845 24.0972 55.9259 26.0255 55.9259 28.3899C55.9259 29.3172 56.2253 30.177 56.7265 30.8771C60.1797 32.3448 64.5925 29.4093 63.9385 26.308ZM44.6863 36.3798L65.5522 42.5149L65.5461 42.5087C67.9786 43.2272 69.6777 45.4995 69.6777 48.0481V53.2681C69.6777 55.786 68.0764 57.9968 65.6867 58.7645L23.1664 72.4225C22.598 72.6006 22.0112 72.6927 21.4245 72.6927C20.4527 72.6927 19.487 72.4471 18.6253 71.9681L14.9459 69.9108C13.1307 68.8913 12 66.963 12 64.8688V64.7399C12 63.1063 12.6968 61.5403 13.9069 60.4472L39.2406 37.6203C40.7319 36.2815 42.7672 35.8148 44.6863 36.3798ZM17.0729 64.875C17.0729 65.1145 17.2012 65.3417 17.4151 65.4584H17.4212L21.1006 67.5157C21.2595 67.6078 21.449 67.6262 21.6262 67.571L22.2068 67.3867L64.6049 47.9867V47.9683C64.5193 47.7226 64.3237 47.5261 64.0793 47.4463L62.8752 47.0409L43.2622 41.2743C43.2011 41.2559 43.1339 41.2498 43.0728 41.2498C42.9077 41.2498 42.7488 41.3112 42.6266 41.4217L17.2929 64.2486C17.1523 64.3714 17.0729 64.5556 17.0729 64.746V64.875Z" fill="url(#paint0_radial_382_1525)"/>
<defs>
<radialGradient id="paint0_radial_382_1525" cx="0" cy="0" r="1" gradientUnits="userSpaceOnUse" gradientTransform="translate(40.8664 14.0397) rotate(90) scale(56.7385 60.9496)">
<stop offset="0.18" stop-color="#3C5B68"/>
<stop offset="1" stop-color="#04080E"/>
</radialGradient>
</defs>
</svg>
